# xmcd
#
# Track frame offsets:
#       182
#       13580
#       28302
#       45025
#       61817
#       76570
#       96765
#       115322
#       135842
#       149245
#       162140
#       174297
#       187127
#       200607
#
# Disc length: 2821 seconds
#
# Revision: 1
# Processed by: cddbd v1.4PL0 Copyright (c) Steve Scherf et al.
# Submitted via: MusiCat 1.1
#
DISCID=b10b030e
DTITLE=Bruno Venturini - Antologia della canzone napoletana cd 1
DYEAR=1900
DGENRE=
TTITLE0='o sole mio
TTITLE1=O surdato 'nnamurato
TTITLE2=Voce 'e notte!
TTITLE3=Dicitincello vuje
TTITLE4=Suspiranno
TTITLE5=Te voglio bene assaie
TTITLE6=Serenata napoletana
TTITLE7=Fenesta vascia
TTITLE8=Dduie Paravise
TTITLE9='ncopp' 'a ll'onna
TTITLE10='o marenaro
TTITLE11=Core furastiero
TTITLE12=Io m'arricordo 'e te (Lucia Luci'!)
TTITLE13='o festino
EXTD=0\n\n\n
EXTT0=
EXTT1=
EXTT2=
EXTT3=
EXTT4=
EXTT5=
EXTT6=
EXTT7=
EXTT8=
EXTT9=
EXTT10=
EXTT11=
EXTT12=
EXTT13=
PLAYORDER=
